<?xml version="1.0" encoding="UTF-8"?>
<!-- Generator: Adobe Illustrator 16.0.4, SVG Export Plug-In . SVG Version: 6.00 Build 0)  -->
<!DOCTYPE svg PUBLIC "-//W3C//DTD SVG 1.1//EN" "http://www.w3.org/Graphics/SVG/1.1/DTD/svg11.dtd">
<svg version="1.1" id="Layer_1" xmlns:x="http://ns.adobe.com/Extensibility/1.0/" xmlns:i="http://ns.adobe.com/AdobeIllustrator/10.0/" xmlns:graph="http://ns.adobe.com/Graphs/1.0/" xmlns="http://www.w3.org/2000/svg" xmlns:xlink="http://www.w3.org/1999/xlink" x="0px" y="0px" width="275px" height="62px" viewBox="0 0 275 62" enable-background="new 0 0 275 62" xml:space="preserve">
<metadata>
	<sfw xmlns="http://ns.adobe.com/SaveForWeb/1.0/">
		<slices/>
		<sliceSourceBounds y="7.055" x="-60.456" width="220.171" height="72.14" bottomLeftOrigin="true"/>
	</sfw>
</metadata>
<g>
	<g>
		<path fill="#FFFFFF" d="M105.526,20.55h-6.551l-0.142,0.025v18.268h6.692c6.346,0,9.185-4.69,9.185-9.34    C114.71,25.191,111.837,20.55,105.526,20.55z M105.526,22.994c4.604,0,6.666,3.256,6.666,6.485c0,3.158-1.745,6.843-6.666,6.843    h-4.174V22.994H105.526z"/>
		<path fill="#FFFFFF" d="M126.805,32.82c0,2.287-1.583,3.968-3.763,3.988c-2.323,0-3.711-1.426-3.711-3.812v-7.129h-2.39v7.156    c0,3.662,2.225,6.024,5.665,6.024h0.002c1.777-0.024,3.22-0.696,4.294-1.987l0.091,1.78h2.204V25.868h-2.39L126.805,32.82    L126.805,32.82z"/>
		<path fill="#FFFFFF" d="M143.177,36.881l-1.489-1.49l-0.104,0.104c-0.811,0.836-1.95,1.291-3.209,1.291    c-2.182,0-4.382-1.367-4.382-4.431c0-2.61,1.812-4.432,4.405-4.432c1.164,0,2.297,0.452,3.11,1.245l0.103,0.098l1.533-1.591    l-0.103-0.098c-1.312-1.289-2.894-1.943-4.696-1.943c-4.053,0-6.771,2.7-6.771,6.721c0,4.641,3.399,6.717,6.771,6.717    c1.879,0,3.504-0.67,4.827-1.993l0.103-0.101L143.177,36.881L143.177,36.881z"/>
		<polygon fill="#FFFFFF" points="155.441,26.198 155.441,25.868 152.617,25.868 147.605,31.006 147.605,20.577 145.238,20.577     145.238,38.846 147.605,38.846 147.605,33.061 153.389,38.846 156.158,38.846 156.158,38.488 149.643,31.997   "/>
		<path fill="#FFFFFF" d="M164.746,20.55h-6.549l-0.143,0.025v18.268h6.688c6.348,0,9.188-4.69,9.188-9.34    C173.934,25.191,171.059,20.55,164.746,20.55z M164.746,22.994c4.605,0,6.668,3.256,6.668,6.485c0,3.158-1.745,6.843-6.668,6.843    h-4.172V22.994H164.746z"/>
		<path fill="#FFFFFF" d="M186.025,32.82c0,2.287-1.582,3.968-3.767,3.988c-2.319,0-3.71-1.426-3.71-3.812v-7.129h-2.389v7.156    c0,3.662,2.225,6.024,5.664,6.024h0.002c1.775-0.024,3.218-0.696,4.293-1.987l0.092,1.78h2.205V25.868h-2.393v6.952H186.025    L186.025,32.82z"/>
		<path fill="#FFFFFF" d="M202.398,36.881l-1.49-1.49l-0.1,0.104c-0.812,0.836-1.951,1.291-3.211,1.291    c-2.182,0-4.383-1.367-4.383-4.431c0-2.61,1.812-4.432,4.404-4.432c1.164,0,2.297,0.452,3.111,1.245l0.104,0.098l1.532-1.591    l-0.104-0.098c-1.311-1.289-2.891-1.943-4.697-1.943c-4.051,0-6.771,2.7-6.771,6.721c0,4.641,3.403,6.717,6.771,6.717    c1.879,0,3.504-0.67,4.828-1.993l0.104-0.101L202.398,36.881L202.398,36.881z"/>
		<polygon fill="#FFFFFF" points="214.662,26.198 214.662,25.868 211.839,25.868 206.826,31.006 206.826,20.577 204.461,20.577     204.461,38.846 206.826,38.846 206.826,33.061 212.611,38.846 215.382,38.846 215.382,38.488 208.863,31.997   "/>
		<path fill="#FFFFFF" d="M224.42,30.982h5.598v4.057c-1.349,1.143-2.994,1.747-4.764,1.747c-4.869,0-7.049-3.478-7.049-6.922    c0-3.508,2.189-7.282,7-7.282c1.896,0,3.895,0.792,5.217,2.065l0.107,0.106L232,23.047l-0.094-0.092    c-1.793-1.767-4.172-2.739-6.703-2.739c-2.76,0-5.123,0.907-6.83,2.622c-1.73,1.739-2.678,4.235-2.662,7.025    c0,4.297,2.492,9.313,9.518,9.313c2.801,0,5.113-1.015,7.066-3.104l0.037-0.039v-7.314h-7.912V30.982L224.42,30.982z"/>
		<path fill="#FFFFFF" d="M240.971,25.584c-3.893,0-6.719,2.859-6.719,6.797c0,3.878,2.826,6.692,6.719,6.692    c3.906,0,6.744-2.814,6.744-6.692C247.715,28.378,244.939,25.584,240.971,25.584z M240.971,36.809    c-2.508,0-4.328-1.857-4.328-4.428c0-2.699,1.791-4.583,4.354-4.583c2.522,0,4.353,1.927,4.353,4.582    C245.323,34.99,243.521,36.809,240.971,36.809z"/>
	</g>
</g>
<g>
	<g>
		<g>
			<g>
				<g>
					<g>
						<g>
							<g>
								<g>
									<g>
										<defs>
											<path id="SVGID_1_" d="M81.951,30.428c0,14.494-11.79,26.283-26.285,26.283c-14.492,0-26.28-11.791-26.28-26.283             c0-14.491,11.79-26.28,26.28-26.28C70.161,4.147,81.951,15.937,81.951,30.428z"/>
										</defs>
										<clipPath id="SVGID_2_">
											<use xlink:href="#SVGID_1_" overflow="visible"/>
										</clipPath>
										<g clip-path="url(#SVGID_2_)">
											<path fill="#D5D7D8" d="M66.342,69.301c-0.917-4.221-6.244-13.771-8.265-17.809c-2.019-4.037-4.042-9.73-3.122-13.402             c0.167-0.668-1.749-5.759-1.198-6.119c4.285-2.795,5.415,0.307,7.13-0.947c0.885-0.648,2.083,0.531,2.39-0.541             c1.098-3.854-1.531-10.571-4.465-13.508c-0.959-0.957-2.43-1.558-4.089-1.877c-0.638-0.872-1.668-1.712-3.125-2.484             c-1.624-0.864-5.154-2.005-6.984-2.309c-1.269-0.209-1.555,0.146-2.098,0.234c0.505,0.045,2.902,1.229,3.37,1.299             c-0.467,0.315-1.837-0.015-2.712,0.377c-0.44,0.2-0.77,0.957-0.767,1.314c2.5-0.253,6.402-0.008,8.708,1.018             c-1.834,0.209-4.624,0.442-5.823,1.072c-3.487,1.838-5.027,6.129-4.109,11.27c0.919,5.13,4.959,23.856,6.245,30.109             c1.286,6.246-2.754,10.281-5.324,11.383l2.754,0.186l-0.917,2.021c3.302,0.368,6.974-0.73,6.974-0.73             c-0.733,2.02-5.692,2.756-5.692,2.756s2.39,0.729,6.243-0.738c3.857-1.467,6.244-2.387,6.244-2.387l1.835,4.771             l3.491-3.486l1.469,3.672C64.504,74.443,67.26,73.521,66.342,69.301z"/>
											<path fill="#FFFFFF" d="M67.451,68.443c-0.915-4.221-6.241-13.771-8.263-17.812c-2.021-4.04-4.041-9.73-3.122-13.4             c0.17-0.668,0.174-3.396,0.728-3.758c4.283-2.8,3.979-0.096,5.696-1.35c0.886-0.646,1.595-1.429,1.904-2.501             c1.103-3.855-1.531-10.571-4.468-13.509c-0.956-0.958-2.427-1.559-4.086-1.876c-0.637-0.875-1.665-1.712-3.123-2.485             c-2.745-1.458-6.148-2.041-9.301-1.469c0.504,0.046,1.658,1.089,2.123,1.157c-0.703,0.477-2.572,0.416-2.561,1.475             c2.503-0.25,5.247,0.145,7.554,1.17c-1.834,0.208-3.542,0.661-4.741,1.294c-3.491,1.834-4.408,5.506-3.491,10.65             c0.92,5.142,4.961,23.868,6.242,30.112c1.287,6.239-2.751,10.277-5.321,11.381l2.754,0.184l-0.917,2.021             c3.302,0.364,6.974-0.734,6.974-0.734c-0.732,2.021-5.691,2.754-5.691,2.754s2.386,0.734,6.242-0.736             c3.859-1.467,6.248-2.385,6.248-2.385l1.833,4.773l3.491-3.49l1.471,3.673C65.619,73.584,68.371,72.665,67.451,68.443z"/>
											<path fill="#2D4F8E" d="M46.343,26.288c0-1.065,0.861-1.929,1.93-1.929c1.064,0,1.927,0.862,1.927,1.929             c0,1.066-0.863,1.928-1.927,1.928C47.205,28.216,46.343,27.354,46.343,26.288z"/>
											<path fill="#FFFFFF" d="M48.628,25.644c0-0.277,0.225-0.5,0.499-0.5c0.277,0,0.501,0.224,0.501,0.5             s-0.224,0.501-0.501,0.501C48.853,26.146,48.628,25.922,48.628,25.644z"/>
											<path fill="#2D4F8E" d="M59.505,25.144c0-0.913,0.744-1.655,1.656-1.655c0.917,0,1.657,0.742,1.657,1.655             c0,0.917-0.741,1.659-1.657,1.659C60.249,26.803,59.505,26.061,59.505,25.144z"/>
											<path fill="#FFFFFF" d="M61.469,24.593c0-0.235,0.193-0.429,0.427-0.429c0.243,0,0.429,0.193,0.429,0.429             c0,0.239-0.187,0.429-0.429,0.429C61.662,25.021,61.469,24.831,61.469,24.593z"/>
											
												<linearGradient id="SVGID_3_" gradientUnits="userSpaceOnUse" x1="1096.458" y1="-2215.3428" x2="1100.8203" y2="-2215.3428" gradientTransform="matrix(1 0 0 -1 -1052 -2194)">
												<stop offset="0.0056" style="stop-color:#6176B9"/>
												<stop offset="0.691" style="stop-color:#394A9F"/>
											</linearGradient>
											<path fill="url(#SVGID_3_)" d="M48.821,20.7c0,0-1.454-0.657-2.867,0.23c-1.41,0.887-1.358,1.794-1.358,1.794             s-0.75-1.672,1.249-2.491C47.846,19.415,48.821,20.7,48.821,20.7z"/>
											
												<linearGradient id="SVGID_4_" gradientUnits="userSpaceOnUse" x1="1110.1836" y1="-2214.0132" x2="1114.1582" y2="-2214.0132" gradientTransform="matrix(1 0 0 -1 -1052 -2194)">
												<stop offset="0.0056" style="stop-color:#6176B9"/>
												<stop offset="0.691" style="stop-color:#394A9F"/>
											</linearGradient>
											<path fill="url(#SVGID_4_)" d="M62.158,20.567c0,0-1.043-0.597-1.855-0.587c-1.664,0.021-2.12,0.758-2.12,0.758             s0.279-1.754,2.411-1.403C61.749,19.528,62.158,20.567,62.158,20.567z"/>
										</g>
									</g>
								</g>
							</g>
						</g>
					</g>
				</g>
			</g>
		</g>
		<path fill="#FDD20A" d="M54.175,33.725c0.193-1.166,3.208-3.374,5.342-3.508c2.139-0.134,2.806-0.104,4.588-0.531    c1.787-0.428,6.383-1.572,7.656-2.16c1.275-0.589,6.672,0.292,2.868,2.413c-1.647,0.921-6.083,2.612-9.253,3.56    c-3.167,0.946-5.087-0.906-6.14,0.651c-0.838,1.235-0.171,2.933,3.614,3.285c5.11,0.476,10.01-2.302,10.55-0.828    c0.542,1.476-4.393,3.313-7.398,3.373c-3,0.057-9.051-1.981-9.957-2.615C55.134,36.732,53.923,35.261,54.175,33.725z"/>
	</g>
</g>
<g>
	<path fill="#65BC46" d="M56.487,48.911c0,0-7.179-3.829-7.297-2.276c-0.121,1.557,0,7.898,0.837,8.377   c0.838,0.479,6.821-3.109,6.821-3.109L56.487,48.911z"/>
	<path fill="#65BC46" d="M59.239,48.671c0,0,4.906-3.712,5.985-3.472c1.075,0.244,1.315,7.898,0.356,8.262   c-0.957,0.355-6.572-1.943-6.572-1.943L59.239,48.671z"/>
	<path fill="#43A244" d="M54.75,49.316c0,2.511-0.361,3.59,0.718,3.828c1.075,0.238,3.108,0,3.828-0.479   c0.717-0.478,0.118-3.708-0.12-4.31C58.935,47.76,54.75,48.24,54.75,49.316z"/>
	<path fill="#65BC46" d="M55.206,48.759c0,2.511-0.359,3.589,0.718,3.828c1.073,0.241,3.108,0,3.828-0.478   c0.717-0.479,0.119-3.705-0.122-4.312C59.391,47.203,55.206,47.684,55.206,48.759z"/>
</g>
<circle fill="none" stroke="#FFFFFF" stroke-width="2" stroke-miterlimit="10" cx="55.669" cy="30.43" r="27.125"/>
</svg>