<?xml version="1.0" encoding="UTF-8" standalone="no"?>
<svg
   xmlns:dc="http://purl.org/dc/elements/1.1/"
   xmlns:cc="http://creativecommons.org/ns#"
   xmlns:rdf="http://www.w3.org/1999/02/22-rdf-syntax-ns#"
   xmlns:svg="http://www.w3.org/2000/svg"
   xmlns="http://www.w3.org/2000/svg"
   xmlns:xlink="http://www.w3.org/1999/xlink"
   id="svg3745"
   xml:space="preserve"
   enable-background="new 0 0 48 48"
   viewBox="0 0 48 48"
   y="0px"
   x="0px"
   version="1.1"><metadata
   id="metadata3751"><rdf:RDF><cc:Work
       rdf:about=""><dc:format>image/svg+xml</dc:format><dc:type
         rdf:resource="http://purl.org/dc/dcmitype/StillImage" /><dc:title></dc:title></cc:Work></rdf:RDF></metadata><defs
   id="defs3749"><clipPath
     id="clipPath4578"
     clipPathUnits="userSpaceOnUse"><ellipse
       transform="scale(1,-1)"
       ry="20.104477"
       rx="20.059702"
       cy="-23.865673"
       cx="23.910448"
       id="ellipse4580"
       style="opacity:0.81800022;fill:#000000;fill-opacity:1;stroke:none;stroke-width:1.21057963" /></clipPath><path
     id="SVGID_1_"
     d="M81.951,30.428c0,14.494-11.79,26.283-26.285,26.283c-14.492,0-26.28-11.791-26.28-26.283             c0-14.491,11.79-26.28,26.28-26.28C70.161,4.147,81.951,15.937,81.951,30.428z" /><clipPath
     id="clipPath1025"
     clipPathUnits="userSpaceOnUse"><circle
       style="fill:#ff3d00"
       cx="24"
       cy="24"
       r="20"
       id="circle1027" /></clipPath></defs>
<circle
   fill="#FF3D00"
   id="circle3733"
   r="20"
   cy="24"
   cx="24" />





<path
   clip-path="url(#clipPath1025)"
   id="path1021"
   d="M 0,48.089218 48.089217,1.4328357e-6 48.179103,48.179104 Z"
   style="fill:#333333;fill-opacity:1;stroke:none;stroke-width:1.00373137px;stroke-linecap:butt;stroke-linejoin:miter;stroke-opacity:1" /><g
   transform="translate(-0.18701172,-0.24233246)"
   id="g1113"><g
     id="g900"
     transform="matrix(0.63882006,0,0,0.64693074,-11.375462,4.5562293)">
	<g
   id="g898">
		<g
   id="g894">
			<g
   id="g892">
				<g
   id="g890">
					<g
   id="g888">
						<g
   id="g886">
							<g
   id="g884">
								<g
   id="g882">
									<g
   id="g880">
										<defs
   id="defs847">
											<path
   id="path932"
   d="m 81.951,30.428 c 0,14.494 -11.79,26.283 -26.285,26.283 -14.492,0 -26.28,-11.791 -26.28,-26.283 0,-14.491 11.79,-26.28 26.28,-26.28 14.495,-10e-4 26.285,11.789 26.285,26.28 z" />
										</defs>
										<clipPath
   id="SVGID_2_">
											<use
   height="100%"
   width="100%"
   y="0"
   x="0"
   style="overflow:visible"
   xlink:href="#SVGID_1_"
   overflow="visible"
   id="use849" />
										</clipPath>
										<g
   clip-path="url(#SVGID_2_)"
   id="g878">
											<path
   style="fill:#d5d7d8"
   d="M 66.342,69.301 C 65.425,65.08 60.098,55.53 58.077,51.492 56.058,47.455 54.035,41.762 54.955,38.09 c 0.167,-0.668 -1.749,-5.759 -1.198,-6.119 4.285,-2.795 5.415,0.307 7.13,-0.947 0.885,-0.648 2.083,0.531 2.39,-0.541 1.098,-3.854 -1.531,-10.571 -4.465,-13.508 -0.959,-0.957 -2.43,-1.558 -4.089,-1.877 -0.638,-0.872 -1.668,-1.712 -3.125,-2.484 -1.624,-0.864 -5.154,-2.005 -6.984,-2.309 -1.269,-0.209 -1.555,0.146 -2.098,0.234 0.505,0.045 2.902,1.229 3.37,1.299 -0.467,0.315 -1.837,-0.015 -2.712,0.377 -0.44,0.2 -0.77,0.957 -0.767,1.314 2.5,-0.253 6.402,-0.008 8.708,1.018 -1.834,0.209 -4.624,0.442 -5.823,1.072 -3.487,1.838 -5.027,6.129 -4.109,11.27 0.919,5.13 4.959,23.856 6.245,30.109 1.286,6.246 -2.754,10.281 -5.324,11.383 l 2.754,0.186 -0.917,2.021 c 3.302,0.368 6.974,-0.73 6.974,-0.73 -0.733,2.02 -5.692,2.756 -5.692,2.756 0,0 2.39,0.729 6.243,-0.738 3.857,-1.467 6.244,-2.387 6.244,-2.387 l 1.835,4.771 3.491,-3.486 1.469,3.672 c -10e-4,-0.003 2.755,-0.925 1.837,-5.145 z"
   id="path852" />
											<path
   style="fill:#ffffff"
   d="M 67.451,68.443 C 66.536,64.222 61.21,54.672 59.188,50.631 c -2.021,-4.04 -4.041,-9.73 -3.122,-13.4 0.17,-0.668 0.174,-3.396 0.728,-3.758 4.283,-2.8 3.979,-0.096 5.696,-1.35 0.886,-0.646 1.595,-1.429 1.904,-2.501 1.103,-3.855 -1.531,-10.571 -4.468,-13.509 -0.956,-0.958 -2.427,-1.559 -4.086,-1.876 -0.637,-0.875 -1.665,-1.712 -3.123,-2.485 -2.745,-1.458 -6.148,-2.041 -9.301,-1.469 0.504,0.046 1.658,1.089 2.123,1.157 -0.703,0.477 -2.572,0.416 -2.561,1.475 2.503,-0.25 5.247,0.145 7.554,1.17 -1.834,0.208 -3.542,0.661 -4.741,1.294 -3.491,1.834 -4.408,5.506 -3.491,10.65 0.92,5.142 4.961,23.868 6.242,30.112 1.287,6.239 -2.751,10.277 -5.321,11.381 l 2.754,0.184 -0.917,2.021 c 3.302,0.364 6.974,-0.734 6.974,-0.734 -0.732,2.021 -5.691,2.754 -5.691,2.754 0,0 2.386,0.734 6.242,-0.736 3.859,-1.467 6.248,-2.385 6.248,-2.385 l 1.833,4.773 3.491,-3.49 1.471,3.673 c -0.007,0.002 2.745,-0.917 1.825,-5.139 z"
   id="path854" />
											<path
   style="fill:#2d4f8e"
   d="m 46.343,26.288 c 0,-1.065 0.861,-1.929 1.93,-1.929 1.064,0 1.927,0.862 1.927,1.929 0,1.066 -0.863,1.928 -1.927,1.928 -1.068,0 -1.93,-0.862 -1.93,-1.928 z"
   id="path856" />
											<path
   style="fill:#ffffff"
   d="m 48.628,25.644 c 0,-0.277 0.225,-0.5 0.499,-0.5 0.277,0 0.501,0.224 0.501,0.5 0,0.276 -0.224,0.501 -0.501,0.501 -0.274,0.001 -0.499,-0.223 -0.499,-0.501 z"
   id="path858" />
											<path
   style="fill:#2d4f8e"
   d="m 59.505,25.144 c 0,-0.913 0.744,-1.655 1.656,-1.655 0.917,0 1.657,0.742 1.657,1.655 0,0.917 -0.741,1.659 -1.657,1.659 -0.912,0 -1.656,-0.742 -1.656,-1.659 z"
   id="path860" />
											<path
   style="fill:#ffffff"
   d="m 61.469,24.593 c 0,-0.235 0.193,-0.429 0.427,-0.429 0.243,0 0.429,0.193 0.429,0.429 0,0.239 -0.187,0.429 -0.429,0.429 -0.234,-10e-4 -0.427,-0.191 -0.427,-0.429 z"
   id="path862" />
											
												<linearGradient
   id="SVGID_3_"
   gradientUnits="userSpaceOnUse"
   x1="1096.458"
   y1="-2215.3428"
   x2="1100.8203"
   y2="-2215.3428"
   gradientTransform="matrix(1,0,0,-1,-1052,-2194)">
												<stop
   offset="0.0056"
   style="stop-color:#6176B9"
   id="stop864" />
												<stop
   offset="0.691"
   style="stop-color:#394A9F"
   id="stop866" />
											</linearGradient>
											<path
   style="fill:url(#SVGID_3_)"
   d="m 48.821,20.7 c 0,0 -1.454,-0.657 -2.867,0.23 -1.41,0.887 -1.358,1.794 -1.358,1.794 0,0 -0.75,-1.672 1.249,-2.491 2.001,-0.818 2.976,0.467 2.976,0.467 z"
   id="path869" />
											
												<linearGradient
   id="SVGID_4_"
   gradientUnits="userSpaceOnUse"
   x1="1110.1836"
   y1="-2214.0132"
   x2="1114.1582"
   y2="-2214.0132"
   gradientTransform="matrix(1,0,0,-1,-1052,-2194)">
												<stop
   offset="0.0056"
   style="stop-color:#6176B9"
   id="stop871" />
												<stop
   offset="0.691"
   style="stop-color:#394A9F"
   id="stop873" />
											</linearGradient>
											<path
   style="fill:url(#SVGID_4_)"
   d="m 62.158,20.567 c 0,0 -1.043,-0.597 -1.855,-0.587 -1.664,0.021 -2.12,0.758 -2.12,0.758 0,0 0.279,-1.754 2.411,-1.403 1.155,0.193 1.564,1.232 1.564,1.232 z"
   id="path876" />
										</g>
									</g>
								</g>
							</g>
						</g>
					</g>
				</g>
			</g>
		</g>
		<path
   style="fill:#fdd20a"
   d="m 54.175,33.725 c 0.193,-1.166 3.208,-3.374 5.342,-3.508 2.139,-0.134 2.806,-0.104 4.588,-0.531 1.787,-0.428 6.383,-1.572 7.656,-2.16 1.275,-0.589 6.672,0.292 2.868,2.413 -1.647,0.921 -6.083,2.612 -9.253,3.56 -3.167,0.946 -5.087,-0.906 -6.14,0.651 -0.838,1.235 -0.171,2.933 3.614,3.285 5.11,0.476 10.01,-2.302 10.55,-0.828 0.542,1.476 -4.393,3.313 -7.398,3.373 -3,0.057 -9.051,-1.981 -9.957,-2.615 -0.911,-0.633 -2.122,-2.104 -1.87,-3.64 z"
   id="path896" />
	</g>
</g><g
     id="g910"
     transform="matrix(0.63882006,0,0,0.64693074,-11.375462,4.5562293)">
	<path
   style="fill:#65bc46"
   d="m 56.487,48.911 c 0,0 -7.179,-3.829 -7.297,-2.276 -0.121,1.557 0,7.898 0.837,8.377 0.838,0.479 6.821,-3.109 6.821,-3.109 z"
   id="path902" />
	<path
   style="fill:#65bc46"
   d="m 59.239,48.671 c 0,0 4.906,-3.712 5.985,-3.472 1.075,0.244 1.315,7.898 0.356,8.262 -0.957,0.355 -6.572,-1.943 -6.572,-1.943 z"
   id="path904" />
	<path
   style="fill:#43a244"
   d="m 54.75,49.316 c 0,2.511 -0.361,3.59 0.718,3.828 1.075,0.238 3.108,0 3.828,-0.479 0.717,-0.478 0.118,-3.708 -0.12,-4.31 C 58.935,47.76 54.75,48.24 54.75,49.316 Z"
   id="path906" />
	<path
   style="fill:#65bc46"
   d="m 55.206,48.759 c 0,2.511 -0.359,3.589 0.718,3.828 1.073,0.241 3.108,0 3.828,-0.478 0.717,-0.479 0.119,-3.705 -0.122,-4.312 -0.239,-0.594 -4.424,-0.113 -4.424,0.962 z"
   id="path908" />
</g><ellipse
     style="fill:none;stroke:#ffffff;stroke-width:1.28572524;stroke-miterlimit:10"
     stroke-miterlimit="10"
     cx="24.187012"
     cy="24.242332"
     id="circle912"
     rx="17.327993"
     ry="17.547997" /></g></svg>